<svg width="14" height="14" viewBox="0 0 14 14" fill="none" xmlns="http://www.w3.org/2000/svg">
<path d="M13 0.999818C12.8125 0.812347 12.5582 0.707031 12.293 0.707031C12.0278 0.707031 11.7735 0.812347 11.586 0.999818L7 5.58582L2.414 0.999818C2.22647 0.812347 1.97217 0.707031 1.707 0.707031C1.44184 0.707031 1.18753 0.812347 1 0.999818C0.81253 1.18735 0.707214 1.44165 0.707214 1.70682C0.707214 1.97198 0.81253 2.22629 1 2.41382L5.586 6.99982L1 11.5858C0.81253 11.7733 0.707214 12.0277 0.707214 12.2928C0.707214 12.558 0.81253 12.8123 1 12.9998C1.18753 13.1873 1.44184 13.2926 1.707 13.2926C1.97217 13.2926 2.22647 13.1873 2.414 12.9998L7 8.41382L11.586 12.9998C11.7735 13.1873 12.0278 13.2926 12.293 13.2926C12.5582 13.2926 12.8125 13.1873 13 12.9998C13.1875 12.8123 13.2928 12.558 13.2928 12.2928C13.2928 12.0277 13.1875 11.7733 13 11.5858L8.414 6.99982L13 2.41382C13.1875 2.22629 13.2928 1.97198 13.2928 1.70682C13.2928 1.44165 13.1875 1.18735 13 0.999818Z" fill="black"/>
</svg>
