<svg width="29" height="17" viewBox="0 0 29 17" fill="none" xmlns="http://www.w3.org/2000/svg">
<path d="M0.0941162 3.99939V9.99939H9.60473C9.31945 11.3959 8.44984 12.6637 7.14956 13.5786C5.84928 14.4935 4.20202 14.9968 2.49882 14.9994V16.9994C5.04901 16.997 7.49394 16.1534 9.29719 14.6536C11.1005 13.1538 12.1148 11.1204 12.1176 8.99939V-0.000610352H4.90353C3.62799 -0.000610352 2.4047 0.420817 1.50276 1.17096C0.600821 1.92111 0.0941162 2.93852 0.0941162 3.99939H0.0941162Z" fill="#03AAC7"/>
<path d="M21.7367 -0.000610352C20.4611 -0.000610352 19.2378 0.420817 18.3359 1.17096C17.434 1.92111 16.9272 2.93852 16.9272 3.99939V9.99939H26.4379C26.1526 11.3959 25.283 12.6637 23.9827 13.5786C22.6824 14.4935 21.0351 14.9968 19.332 14.9994V16.9994C21.8821 16.997 24.3271 16.1534 26.1303 14.6536C27.9336 13.1538 28.9479 11.1204 28.9508 8.99939V-0.000610352H21.7367Z" fill="#03AAC7"/>
</svg>
