<svg width="10" height="10" viewBox="0 0 10 10" fill="none" xmlns="http://www.w3.org/2000/svg">
<path d="M8.95827 5.88292L7.50702 5L8.95827 4.11708C9.10924 4.02666 9.24069 3.90708 9.34496 3.76532C9.44922 3.62355 9.52421 3.46245 9.56555 3.29139C9.60689 3.12034 9.61376 2.94277 9.58575 2.76904C9.55773 2.59531 9.4954 2.42889 9.4024 2.2795C9.30939 2.13011 9.18756 2.00074 9.04402 1.89893C8.90049 1.79712 8.73811 1.72492 8.56637 1.68653C8.39464 1.64814 8.21697 1.64433 8.04375 1.67533C7.87052 1.70633 7.7052 1.77152 7.55744 1.86708L6.24994 2.70417V1.25C6.24994 0.918479 6.11824 0.600537 5.88382 0.366116C5.6494 0.131696 5.33146 0 4.99994 0C4.66842 0 4.35048 0.131696 4.11605 0.366116C3.88163 0.600537 3.74994 0.918479 3.74994 1.25V2.745L2.44244 1.86708C2.14426 1.68849 1.78786 1.63417 1.45002 1.71582C1.11218 1.79748 0.819929 2.00857 0.636228 2.30362C0.452528 2.59868 0.392078 2.95409 0.467902 3.29329C0.543726 3.63249 0.749754 3.92833 1.0416 4.11708L2.49285 5L1.0416 5.88292C0.749754 6.07167 0.543726 6.36751 0.467902 6.70671C0.392078 7.04591 0.452528 7.40132 0.636228 7.69637C0.819929 7.99143 1.11218 8.20253 1.45002 8.28418C1.78786 8.36583 2.14426 8.31151 2.44244 8.13292L3.74994 7.28375V8.75C3.74994 9.08152 3.88163 9.39946 4.11605 9.63388C4.35048 9.8683 4.66842 10 4.99994 10C5.33146 10 5.6494 9.8683 5.88382 9.63388C6.11824 9.39946 6.24994 9.08152 6.24994 8.75V7.25833L7.55744 8.13333C7.85562 8.31193 8.21201 8.36625 8.54986 8.28459C8.8877 8.20294 9.17995 7.99185 9.36365 7.69679C9.54735 7.40173 9.6078 7.04633 9.53197 6.70713C9.45615 6.36793 9.25012 6.07209 8.95827 5.88333V5.88292Z" fill="#028095"/>
</svg>
