<svg width="24" height="24" viewBox="0 0 24 24" fill="none" xmlns="http://www.w3.org/2000/svg">
<path d="M6.85238 23.4374C6.08918 23.434 5.34667 23.189 4.73138 22.7374C4.10259 22.2951 3.63339 21.6616 3.39358 20.9311C3.15376 20.2007 3.15615 19.4124 3.40038 18.6834L4.57038 15.0644L1.49038 12.8124C0.872823 12.3612 0.413799 11.7263 0.178982 10.9984C-0.0558344 10.2705 -0.0544104 9.48697 0.18305 8.75994C0.420511 8.03291 0.88184 7.39962 1.50103 6.95067C2.12023 6.50171 2.86555 6.26011 3.63038 6.26042H7.40038L8.54538 2.69042C8.78037 1.95936 9.24133 1.32174 9.86186 0.869401C10.4824 0.41706 11.2305 0.17334 11.9984 0.17334C12.7663 0.17334 13.5144 0.41706 14.1349 0.869401C14.7554 1.32174 15.2164 1.95936 15.4514 2.69042L16.6004 6.26042H20.3704C21.1351 6.26032 21.8803 6.50208 22.4993 6.95111C23.1184 7.40014 23.5795 8.03344 23.8169 8.76042C24.0542 9.4874 24.0555 10.2708 23.8207 10.9986C23.5859 11.7264 23.1269 12.3613 22.5094 12.8124L19.4304 15.0644L20.6004 18.6834C20.8363 19.4134 20.8345 20.1995 20.5954 20.9284C20.3564 21.6574 19.8922 22.2917 19.2698 22.7402C18.6473 23.1887 17.8987 23.4282 17.1315 23.4243C16.3644 23.4204 15.6182 23.1732 15.0004 22.7184L12.0004 20.5124L9.00038 22.7194C8.37964 23.1824 7.62676 23.4341 6.85238 23.4374ZM3.63038 9.26042C3.49839 9.26041 3.36976 9.30212 3.2629 9.37959C3.15603 9.45706 3.07638 9.56633 3.03534 9.69178C2.9943 9.81723 2.99397 9.95245 3.03438 10.0781C3.0748 10.2038 3.1539 10.3134 3.26038 10.3914L7.21638 13.2824C7.47111 13.4687 7.66062 13.7305 7.75793 14.0307C7.85524 14.3309 7.8554 14.6541 7.75838 14.9544L6.25838 19.6044C6.21676 19.7306 6.21633 19.8667 6.25716 19.993C6.298 20.1194 6.37797 20.2296 6.48553 20.3075C6.59308 20.3854 6.72263 20.4271 6.85546 20.4266C6.98828 20.426 7.11748 20.3833 7.22438 20.3044L11.1134 17.4434C11.371 17.2538 11.6825 17.1516 12.0024 17.1516C12.3222 17.1516 12.6337 17.2538 12.8914 17.4434L16.7804 20.3034C16.8871 20.383 17.0165 20.4264 17.1497 20.4273C17.2828 20.4282 17.4128 20.3865 17.5206 20.3084C17.6284 20.2302 17.7085 20.1197 17.7491 19.9929C17.7897 19.8661 17.7887 19.7297 17.7464 19.6034L16.2464 14.9534C16.1494 14.6531 16.1495 14.3299 16.2468 14.0297C16.3441 13.7295 16.5336 13.4677 16.7884 13.2814L20.7434 10.3904C20.8498 10.3125 20.9289 10.2029 20.9693 10.0773C21.0097 9.95178 21.0095 9.81666 20.9686 9.69125C20.9277 9.56585 20.8482 9.45658 20.7415 9.37903C20.6348 9.30148 20.5063 9.25962 20.3744 9.25942H15.5004C15.1827 9.25934 14.8732 9.1584 14.6166 8.97113C14.3599 8.78386 14.1694 8.51995 14.0724 8.21742L12.6004 3.60642C12.5598 3.48022 12.4803 3.37015 12.3732 3.29206C12.2661 3.21396 12.1369 3.17189 12.0044 3.17189C11.8718 3.17189 11.7427 3.21396 11.6356 3.29206C11.5285 3.37015 11.4489 3.48022 11.4084 3.60642L9.92538 8.21842C9.82853 8.52046 9.63843 8.78403 9.3824 8.97125C9.12636 9.15847 8.81757 9.25971 8.50038 9.26042H3.63038Z" fill="#FFBC2C"/>
</svg>
