<svg width="35" height="35" viewBox="0 0 35 35" fill="none" xmlns="http://www.w3.org/2000/svg">
<g clip-path="url(#clip0_8845_164)">
<path fill-rule="evenodd" clip-rule="evenodd" d="M26.81 33.2196C27.2796 33.5521 27.8848 33.6352 28.4244 33.4311C28.964 33.2254 29.3606 32.7646 29.4802 32.2061C30.7475 26.2502 33.8217 11.1754 34.9752 5.75772C35.0627 5.34938 34.9169 4.92501 34.596 4.6523C34.2752 4.37959 33.8304 4.30084 33.4338 4.44813C27.319 6.71147 8.4875 13.7771 0.790417 16.6252C0.301875 16.806 -0.0160413 17.2756 3.69386e-07 17.7904C0.0175004 18.3067 0.364584 18.7544 0.864792 18.9046C4.31667 19.9371 8.84771 21.3736 8.84771 21.3736C8.84771 21.3736 10.9652 27.7683 12.0692 31.0204C12.2077 31.4288 12.5271 31.7496 12.9485 31.8604C13.3685 31.9698 13.8177 31.8546 14.1312 31.5585C15.9046 29.8844 18.6463 27.2958 18.6463 27.2958C18.6463 27.2958 23.8554 31.1152 26.81 33.2196ZM10.7538 20.5656L13.2023 28.6419L13.7463 23.5275C13.7463 23.5275 23.2065 14.9948 28.5994 10.1313C28.7569 9.98834 28.7788 9.74918 28.6475 9.58147C28.5177 9.41376 28.2785 9.37438 28.0992 9.48813C21.8488 13.4796 10.7538 20.5656 10.7538 20.5656Z" fill="#0BB6FF"/>
</g>
<defs>
<clipPath id="clip0_8845_164">
<rect width="35" height="35" fill="white"/>
</clipPath>
</defs>
</svg>
