<svg width="35" height="35" viewBox="0 0 35 35" fill="none" xmlns="http://www.w3.org/2000/svg">
<g clip-path="url(#clip0_8848_189)">
<path d="M0.0831299 35L2.54334 26.0123C1.02521 23.3815 0.227505 20.3992 0.228963 17.341C0.233338 7.78021 8.01355 0 17.5729 0C22.2119 0.00145833 26.5665 1.80833 29.8419 5.08667C33.1158 8.365 34.9183 12.7225 34.9169 17.3571C34.9125 26.9194 27.1323 34.6996 17.5729 34.6996C14.6708 34.6981 11.811 33.9704 9.27792 32.5879L0.0831299 35ZM9.70375 29.4481C12.1479 30.8992 14.4813 31.7683 17.5671 31.7698C25.5121 31.7698 31.9842 25.3035 31.9885 17.3542C31.9915 9.38875 25.55 2.93125 17.5788 2.92833C9.62792 2.92833 3.16021 9.39458 3.1573 17.3425C3.15584 20.5873 4.10667 23.0169 5.70355 25.5588L4.24667 30.8787L9.70375 29.4481ZM26.3098 21.4798C26.2019 21.299 25.9131 21.191 25.4785 20.9738C25.0454 20.7565 22.9148 19.7079 22.5167 19.5635C22.12 19.4192 21.8313 19.3463 21.541 19.7808C21.2523 20.214 20.421 21.191 20.1688 21.4798C19.9165 21.7685 19.6627 21.805 19.2296 21.5877C18.7965 21.3704 17.3994 20.914 15.7442 19.4367C14.4565 18.2875 13.5858 16.8685 13.3335 16.434C13.0813 16.0008 13.3073 15.766 13.5231 15.5502C13.7185 15.3563 13.9563 15.0442 14.1735 14.7904C14.3938 14.5396 14.4652 14.3588 14.611 14.0685C14.7554 13.7798 14.684 13.526 14.5746 13.3088C14.4652 13.0929 13.599 10.9594 13.2388 10.0917C12.8858 9.24729 12.5285 9.36104 12.2631 9.34792L11.4319 9.33333C11.1431 9.33333 10.6735 9.44125 10.2769 9.87583C9.88021 10.3104 8.76021 11.3575 8.76021 13.491C8.76021 15.6246 10.3133 17.6852 10.5292 17.974C10.7465 18.2627 13.5844 22.6406 17.9317 24.5175C18.9656 24.9638 19.7735 25.2306 20.4021 25.4304C21.4404 25.76 22.3854 25.7133 23.1321 25.6025C23.9648 25.4785 25.6958 24.554 26.0575 23.5419C26.4192 22.5283 26.4192 21.6606 26.3098 21.4798Z" fill="#138B13"/>
</g>
<defs>
<clipPath id="clip0_8848_189">
<rect width="35" height="35" fill="white"/>
</clipPath>
</defs>
</svg>
